<svg width="960" height="250" xmlns="http://www.w3.org/2000/svg"><path fill="#fff" d="M0 0h960v250H0z"/><path d="m0 196 10 2.5c10 2.5 30 7.5 50 3.8 20-3.6 40-16 60-27.3s40-21.7 60-18.5c20 3.2 40 19.8 60 26.5 20 6.7 40 3.3 60-.5s40-8.2 60-9.5c20-1.3 40 .3 60-6.3 20-6.7 40-21.7 60-24.9 20-3.1 40 5.5 60 12.5s40 12.4 60 17.2c20 4.8 40 9.2 60 3.3 20-5.8 40-21.8 60-30.6 20-8.9 40-10.5 60 .5s40 34.6 60 35.1 40-22.1 60-21.8c20 .3 40 23.7 50 35.3l10 11.7V0H0Z" fill="#ff79fd"/><path d="m0 154 10-1.8c10-1.9 30-5.5 50-8.9 20-3.3 40-6.3 60-12 20-5.6 40-14 60-8.6 20 5.3 40 24.3 60 33.1 20 8.9 40 7.5 60 .4 20-7.2 40-20.2 60-19.5 20 .6 40 15 60 19.3 20 4.3 40-1.3 60-2s40 3.7 60 2.2 40-8.9 60-16.9c20-8 40-16.6 60-18.8 20-2.2 40 2.2 60 13.3 20 11.2 40 29.2 60 36.5 20 7.4 40 4 60 2.2 20-1.8 40-2.2 60-1 20 1.2 40 3.8 50 5.2l10 1.3V0H0Z" fill="#ef74fe"/><path d="m0 97 10 1.8c10 1.9 30 5.5 50 4.7 20-.8 40-6.2 60 0s40 23.8 60 32.8c20 9 40 9.4 60 3.9s40-16.9 60-23.4 40-8.1 60-6.5c20 1.7 40 6.7 60 13 20 6.4 40 14 60 16.2 20 2.2 40-1.2 60-2.2 20-1 40 .4 60-.1s40-2.9 60-6.9 40-9.6 60-13.8c20-4.2 40-6.8 60-10.3 20-3.5 40-7.9 60-3.4s40 17.9 60 20.5c20 2.7 40-5.3 50-9.3l10-4V0H0Z" fill="#de6ffe"/><path d="m0 92 10 .7c10 .6 30 2 50-1.7s40-12.3 60-15.8 40-1.9 60 1.3 40 7.8 60 8.8c20 1 40-1.6 60 4.7 20 6.3 40 21.7 60 29.7s40 8.6 60 5c20-3.7 40-11.7 60-21.4 20-9.6 40-21 60-21.3 20-.3 40 10.3 60 17.8s40 11.9 60 12.9 40-1.4 60-.7 40 4.3 60-1.7 40-21.6 60-27.5c20-5.8 40-1.8 60 5.7s40 18.5 50 24l10 5.5V0H0Z" fill="#cb6bff"/><path d="m0 83 10-1.8c10-1.9 30-5.5 50-2.9C80 81 100 90 120 93s40 0 60 .7c20 .6 40 5 60-.9C260 87 280 71 300 63s40-8 60-4.2c20 3.9 40 11.5 60 19.2 20 7.7 40 15.3 60 12 20-3.3 40-17.7 60-24.5 20-6.8 40-6.2 60-7.2s40-3.6 60 1.7 40 18.7 60 25.2 40 6.1 60 1.1 40-14.6 60-17.3c20-2.7 40 1.7 60 3.3 20 1.7 40 .7 50 .2l10-.5V0H0Z" fill="#b767ff"/><path d="m0 68 10-4.7c10-4.6 30-14 50-14.1 20-.2 40 8.8 60 8.3s40-10.5 60-10.7c20-.1 40 9.5 60 14.7 20 5.2 40 5.8 60 7 20 1.2 40 2.8 60 3.3s40-.1 60-4c20-3.8 40-10.8 60-15 20-4.1 40-5.5 60-8.1 20-2.7 40-6.7 60-7.2s40 2.5 60 7.7c20 5.1 40 12.5 60 17s40 6.1 60 5.6 40-3.1 60-2.5c20 .7 40 4.7 60-.1 20-4.9 40-18.5 50-25.4l10-6.8V0H0Z" fill="#a164ff"/><path d="m0 20 10 1.7c10 1.6 30 5 50 4.8 20-.2 40-3.8 60-2.8s40 6.6 60 5.6 40-8.6 60-9.8c20-1.2 40 4.2 60 4.7s40-3.9 60-4.9c20-1 40 1.4 60 1.2 20-.2 40-2.8 60 1.2s40 14.6 60 19.1c20 4.5 40 2.9 60 2.7 20-.2 40 1.2 60-3.7 20-4.8 40-15.8 60-17.3s40 6.5 60 9.2c20 2.6 40 0 60 .6 20 .7 40 4.7 60 7.2s40 3.5 50 4l10 .5V0H0Z" fill="#8961ff"/></svg>