<svg width="960" height="540" xmlns="http://www.w3.org/2000/svg"><path fill="#fff" d="M0 0h960v540H0z"/><path d="m0 412 10-6.2c10-6.1 30-18.5 50-22.1 20-3.7 40 1.3 60-2.4 20-3.6 40-16 60-16.5s40 10.9 60 22.5c20 11.7 40 23.7 60 29.2s40 4.5 60 4 40-.5 60-6.8c20-6.4 40-19 60-23.5s40-.9 60 5c20 5.8 40 13.8 60 13.6 20-.1 40-8.5 60-14.5s40-9.6 60-8c20 1.7 40 8.7 60 15.2s40 12.5 60 13.2c20 .6 40-4 60-8.9 20-4.8 40-9.8 50-12.3l10-2.5v150H0Z" fill="#ff79fd"/><path d="m0 421 10-3.2c10-3.1 30-9.5 50-15s40-10.1 60-4.5c20 5.7 40 21.7 60 24.5 20 2.9 40-7.5 60-11.3 20-3.8 40-1.2 60 3.8s40 12.4 60 8.5c20-3.8 40-18.8 60-20.1 20-1.4 40 11 60 14.5s40-1.9 60-3c20-1.2 40 1.8 60-3.9 20-5.6 40-20 60-20.8 20-.8 40 11.8 60 22.7 20 10.8 40 19.8 60 19.5 20-.4 40-10 60-18.9 20-8.8 40-16.8 60-23.1 20-6.4 40-11 50-13.4l10-2.3v166H0Z" fill="#ef74fe"/><path d="m0 434 10-4.8c10-4.9 30-14.5 50-10.9 20 3.7 40 20.7 60 27.4 20 6.6 40 3 60 .8s40-2.8 60-5.7c20-2.8 40-7.8 60-11.8 20-4 40-7 60-5.5s40 7.5 60 6.5 40-9 60-5.2c20 3.9 40 19.5 60 26.5s40 5.4 60 .9 40-11.9 60-20c20-8.2 40-17.2 60-14 20 3.1 40 18.5 60 18.3 20-.2 40-15.8 60-14.5 20 1.3 40 19.7 60 24.5 20 4.8 40-3.8 50-8.2l10-4.3v107H0Z" fill="#de6ffe"/><path d="m0 464 10-1.8c10-1.9 30-5.5 50-11.9 20-6.3 40-15.3 60-14.1 20 1.1 40 12.5 60 20.5s40 12.6 60 8.3c20-4.3 40-17.7 60-21.8 20-4.2 40 .8 60 1 20 .1 40-4.5 60-1.2s40 14.7 60 21c20 6.3 40 7.7 60 9.3 20 1.7 40 3.7 60-2.8s40-21.5 60-28.8c20-7.4 40-7 60-3.2s40 11.2 60 13.8c20 2.7 40 .7 60-3 20-3.6 40-9 60-10.3 20-1.3 40 1.3 50 2.7l10 1.3v98H0Z" fill="#cb6bff"/><path d="m0 454 10 6.7c10 6.6 30 20 50 23s40-4.4 60-7.5c20-3.2 40-2.2 60-5.2s40-10 60-9 40 10 60 10.3c20 .4 40-8 60-12s40-3.6 60 .9 40 13.1 60 17.5c20 4.3 40 4.3 60 5 20 .6 40 2 60 1.1 20-.8 40-3.8 60-2.8s40 6 60 8.8c20 2.9 40 3.5 60 3.7 20 .2 40-.2 60-6.5s40-18.7 60-20.2 40 7.9 50 12.5l10 4.7v56H0Z" fill="#b767ff"/><path d="m0 497 10-3c10-3 30-9 50-11.8 20-2.9 40-2.5 60-3.2 20-.7 40-2.3 60 1s40 11.7 60 14.2 40-.9 60-.4 40 4.9 60 4.4 40-5.9 60-9.4 40-5.1 60-6.5c20-1.3 40-2.3 60-1.8 20 .5 40 2.5 60 6s40 8.5 60 9.7c20 1.1 40-1.5 60-3s40-1.9 60-3.2c20-1.3 40-3.7 60-6.7s40-6.6 60-7.1 40 2.1 50 3.5l10 1.3v60H0Z" fill="#a164ff"/><path d="m0 503 10-.8c10-.9 30-2.5 50 .8s40 11.7 60 14c20 2.3 40-1.3 60-4s40-4.3 60-5.3 40-1.4 60-1.7c20-.3 40-.7 60 2.5s40 9.8 60 10.2c20 .3 40-5.7 60-6.5 20-.9 40 3.5 60 4.3 20 .8 40-1.8 60-2.7 20-.8 40 .2 60 2 20 1.9 40 4.5 60 6.7s40 3.8 60 2.5c20-1.3 40-5.7 60-7.7s40-1.6 60-.8 40 2.2 50 2.8l10 .7v21H0Z" fill="#8961ff"/></svg>